REM GoldWave
FILE "Зазнобин В.М. Адекватная идеология для Белоруссии и Русской цивилизации в целом (2 июля 2016 г.).m4a" BINARY
  TRACK 01 AUDIO
    TITLE "00:00:00.00000"
    PERFORMER "Владимир Михайлович Зазнобин. Видеоархив"
    INDEX 01 00:00:00
  TRACK 02 AUDIO
    TITLE "00:00:13.66392"
    PERFORMER "Владимир Михайлович Зазнобин. Видеоархив"
    INDEX 01 00:13:50
  TRACK 03 AUDIO
    TITLE "00:00:28.66256"
    PERFORMER "Владимир Михайлович Зазнобин. Видеоархив"
    INDEX 01 00:28:50
  TRACK 04 AUDIO
    TITLE "00:00:43.72340"
    PERFORMER "Владимир Михайлович Зазнобин. Видеоархив"
    INDEX 01 00:43:54
  TRACK 05 AUDIO
    TITLE "00:00:57.78163"
    PERFORMER "Владимир Михайлович Зазнобин. Видеоархив"
    INDEX 01 00:57:59
  TRACK 06 AUDIO
    TITLE "00:01:11.23474"
    PERFORMER "Владимир Михайлович Зазнобин. Видеоархив"
    INDEX 01 01:11:18
  TRACK 07 AUDIO
    TITLE "00:01:26.39683"
    PERFORMER "Владимир Михайлович Зазнобин. Видеоархив"
    INDEX 01 01:26:30
  TRACK 08 AUDIO
    TITLE "00:01:40.28553"
    PERFORMER "Владимир Михайлович Зазнобин. Видеоархив"
    INDEX 01 01:40:21
  TRACK 09 AUDIO
    TITLE "00:01:54.92147"
    PERFORMER "Владимир Михайлович Зазнобин. Видеоархив"
    INDEX 01 01:54:69
  TRACK 10 AUDIO
    TITLE "00:02:08.15769"
    PERFORMER "Владимир Михайлович Зазнобин. Видеоархив"
    INDEX 01 02:08:12
  TRACK 11 AUDIO
    TITLE "00:02:22.60832"
    PERFORMER "Владимир Михайлович Зазнобин. Видеоархив"
    INDEX 01 02:22:46
  TRACK 12 AUDIO
    TITLE "00:02:36.94333"
    PERFORMER "Владимир Михайлович Зазнобин. Видеоархив"
    INDEX 01 02:36:71
  TRACK 13 AUDIO
    TITLE "00:02:53.04769"
    PERFORMER "Владимир Михайлович Зазнобин. Видеоархив"
    INDEX 01 02:53:04
  TRACK 14 AUDIO
    TITLE "00:03:09.42420"
    PERFORMER "Владимир Михайлович Зазнобин. Видеоархив"
    INDEX 01 03:09:32
  TRACK 15 AUDIO
    TITLE "00:03:24.15068"
    PERFORMER "Владимир Михайлович Зазнобин. Видеоархив"
    INDEX 01 03:24:11
  TRACK 16 AUDIO
    TITLE "00:03:38.66585"
    PERFORMER "Владимир Михайлович Зазнобин. Видеоархив"
    INDEX 01 03:38:50
  TRACK 17 AUDIO
    TITLE "00:03:56.08168"
    PERFORMER "Владимир Михайлович Зазнобин. Видеоархив"
    INDEX 01 03:56:06
  TRACK 18 AUDIO
    TITLE "00:04:09.42751"
    PERFORMER "Владимир Михайлович Зазнобин. Видеоархив"
    INDEX 01 04:09:32
  TRACK 19 AUDIO
    TITLE "00:04:23.71884"
    PERFORMER "Владимир Михайлович Зазнобин. Видеоархив"
    INDEX 01 04:23:54
  TRACK 20 AUDIO
    TITLE "00:04:39.12197"
    PERFORMER "Владимир Михайлович Зазнобин. Видеоархив"
    INDEX 01 04:39:09
  TRACK 21 AUDIO
    TITLE "00:04:52.70093"
    PERFORMER "Владимир Михайлович Зазнобин. Видеоархив"
    INDEX 01 04:52:53
  TRACK 22 AUDIO
    TITLE "00:05:06.93469"
    PERFORMER "Владимир Михайлович Зазнобин. Видеоархив"
    INDEX 01 05:06:70
  TRACK 23 AUDIO
    TITLE "00:05:21.04444"
    PERFORMER "Владимир Михайлович Зазнобин. Видеоархив"
    INDEX 01 05:21:03
  TRACK 24 AUDIO
    TITLE "00:05:34.90438"
    PERFORMER "Владимир Михайлович Зазнобин. Видеоархив"
    INDEX 01 05:34:68
  TRACK 25 AUDIO
    TITLE "00:05:48.45639"
    PERFORMER "Владимир Михайлович Зазнобин. Видеоархив"
    INDEX 01 05:48:34
  TRACK 26 AUDIO
    TITLE "00:06:04.88397"
    PERFORMER "Владимир Михайлович Зазнобин. Видеоархив"
    INDEX 01 06:04:66
  TRACK 27 AUDIO
    TITLE "00:06:18.89621"
    PERFORMER "Владимир Михайлович Зазнобин. Видеоархив"
    INDEX 01 06:18:67
  TRACK 28 AUDIO
    TITLE "00:06:36.55723"
    PERFORMER "Владимир Михайлович Зазнобин. Видеоархив"
    INDEX 01 06:36:42
  TRACK 29 AUDIO
    TITLE "00:06:49.48603"
    PERFORMER "Владимир Михайлович Зазнобин. Видеоархив"
    INDEX 01 06:49:36
  TRACK 30 AUDIO
    TITLE "00:07:04.71918"
    PERFORMER "Владимир Михайлович Зазнобин. Видеоархив"
    INDEX 01 07:04:54
  TRACK 31 AUDIO
    TITLE "00:07:18.39984"
    PERFORMER "Владимир Михайлович Зазнобин. Видеоархив"
    INDEX 01 07:18:30
  TRACK 32 AUDIO
    TITLE "00:07:31.52556"
    PERFORMER "Владимир Михайлович Зазнобин. Видеоархив"
    INDEX 01 07:31:39
  TRACK 33 AUDIO
    TITLE "00:07:45.02510"
    PERFORMER "Владимир Михайлович Зазнобин. Видеоархив"
    INDEX 01 07:45:02
  TRACK 34 AUDIO
    TITLE "00:08:05.02621"
    PERFORMER "Владимир Михайлович Зазнобин. Видеоархив"
    INDEX 01 08:05:02
  TRACK 35 AUDIO
    TITLE "00:08:19.64218"
    PERFORMER "Владимир Михайлович Зазнобин. Видеоархив"
    INDEX 01 08:19:48
  TRACK 36 AUDIO
    TITLE "00:08:34.01943"
    PERFORMER "Владимир Михайлович Зазнобин. Видеоархив"
    INDEX 01 08:34:01
  TRACK 37 AUDIO
    TITLE "00:08:51.64286"
    PERFORMER "Владимир Михайлович Зазнобин. Видеоархив"
    INDEX 01 08:51:48
  TRACK 38 AUDIO
    TITLE "00:09:07.28746"
    PERFORMER "Владимир Михайлович Зазнобин. Видеоархив"
    INDEX 01 09:07:22
  TRACK 39 AUDIO
    TITLE "00:09:20.47261"
    PERFORMER "Владимир Михайлович Зазнобин. Видеоархив"
    INDEX 01 09:20:35
  TRACK 40 AUDIO
    TITLE "00:09:36.88020"
    PERFORMER "Владимир Михайлович Зазнобин. Видеоархив"
    INDEX 01 09:36:66
  TRACK 41 AUDIO
    TITLE "00:09:50.31288"
    PERFORMER "Владимир Михайлович Зазнобин. Видеоархив"
    INDEX 01 09:50:23
  TRACK 42 AUDIO
    TITLE "00:10:04.33256"
    PERFORMER "Владимир Михайлович Зазнобин. Видеоархив"
    INDEX 01 10:04:25
  TRACK 43 AUDIO
    TITLE "00:10:19.13474"
    PERFORMER "Владимир Михайлович Зазнобин. Видеоархив"
    INDEX 01 10:19:10
  TRACK 44 AUDIO
    TITLE "00:10:34.13569"
    PERFORMER "Владимир Михайлович Зазнобин. Видеоархив"
    INDEX 01 10:34:10
  TRACK 45 AUDIO
    TITLE "00:10:53.57907"
    PERFORMER "Владимир Михайлович Зазнобин. Видеоархив"
    INDEX 01 10:53:43
  TRACK 46 AUDIO
    TITLE "00:11:10.83283"
    PERFORMER "Владимир Михайлович Зазнобин. Видеоархив"
    INDEX 01 11:10:62
  TRACK 47 AUDIO
    TITLE "00:11:29.54431"
    PERFORMER "Владимир Михайлович Зазнобин. Видеоархив"
    INDEX 01 11:29:41
  TRACK 48 AUDIO
    TITLE "00:11:46.46277"
    PERFORMER "Владимир Михайлович Зазнобин. Видеоархив"
    INDEX 01 11:46:35
  TRACK 49 AUDIO
    TITLE "00:12:03.45923"
    PERFORMER "Владимир Михайлович Зазнобин. Видеоархив"
    INDEX 01 12:03:34
  TRACK 50 AUDIO
    TITLE "00:12:19.66948"
    PERFORMER "Владимир Михайлович Зазнобин. Видеоархив"
    INDEX 01 12:19:50
  TRACK 51 AUDIO
    TITLE "00:12:37.02075"
    PERFORMER "Владимир Михайлович Зазнобин. Видеоархив"
    INDEX 01 12:37:02
  TRACK 52 AUDIO
    TITLE "00:12:50.73902"
    PERFORMER "Владимир Михайлович Зазнобин. Видеоархив"
    INDEX 01 12:50:55
  TRACK 53 AUDIO
    TITLE "00:13:06.44354"
    PERFORMER "Владимир Михайлович Зазнобин. Видеоархив"
    INDEX 01 13:06:33
  TRACK 54 AUDIO
    TITLE "00:13:21.13240"
    PERFORMER "Владимир Михайлович Зазнобин. Видеоархив"
    INDEX 01 13:21:10
  TRACK 55 AUDIO
    TITLE "00:13:36.31447"
    PERFORMER "Владимир Михайлович Зазнобин. Видеоархив"
    INDEX 01 13:36:24
  TRACK 56 AUDIO
    TITLE "00:13:50.97966"
    PERFORMER "Владимир Михайлович Зазнобин. Видеоархив"
    INDEX 01 13:50:73
  TRACK 57 AUDIO
    TITLE "00:14:07.47272"
    PERFORMER "Владимир Михайлович Зазнобин. Видеоархив"
    INDEX 01 14:07:35
  TRACK 58 AUDIO
    TITLE "00:14:26.01937"
    PERFORMER "Владимир Михайлович Зазнобин. Видеоархив"
    INDEX 01 14:26:01
  TRACK 59 AUDIO
    TITLE "00:14:42.28857"
    PERFORMER "Владимир Михайлович Зазнобин. Видеоархив"
    INDEX 01 14:42:22
  TRACK 60 AUDIO
    TITLE "00:14:55.46073"
    PERFORMER "Владимир Михайлович Зазнобин. Видеоархив"
    INDEX 01 14:55:35
  TRACK 61 AUDIO
    TITLE "00:15:09.19664"
    PERFORMER "Владимир Михайлович Зазнобин. Видеоархив"
    INDEX 01 15:09:15
  TRACK 62 AUDIO
    TITLE "00:15:25.50905"
    PERFORMER "Владимир Михайлович Зазнобин. Видеоархив"
    INDEX 01 15:25:38
  TRACK 63 AUDIO
    TITLE "00:15:41.83354"
    PERFORMER "Владимир Михайлович Зазнобин. Видеоархив"
    INDEX 01 15:41:63
  TRACK 64 AUDIO
    TITLE "00:16:03.70991"
    PERFORMER "Владимир Михайлович Зазнобин. Видеоархив"
    INDEX 01 16:03:53
  TRACK 65 AUDIO
    TITLE "00:16:18.73177"
    PERFORMER "Владимир Михайлович Зазнобин. Видеоархив"
    INDEX 01 16:18:55
  TRACK 66 AUDIO
    TITLE "00:16:35.46630"
    PERFORMER "Владимир Михайлович Зазнобин. Видеоархив"
    INDEX 01 16:35:35
  TRACK 67 AUDIO
    TITLE "00:16:51.31757"
    PERFORMER "Владимир Михайлович Зазнобин. Видеоархив"
    INDEX 01 16:51:24
  TRACK 68 AUDIO
    TITLE "00:17:05.26247"
    PERFORMER "Владимир Михайлович Зазнобин. Видеоархив"
    INDEX 01 17:05:20
  TRACK 69 AUDIO
    TITLE "00:17:18.54281"
    PERFORMER "Владимир Михайлович Зазнобин. Видеоархив"
    INDEX 01 17:18:41
  TRACK 70 AUDIO
    TITLE "00:17:40.60821"
    PERFORMER "Владимир Михайлович Зазнобин. Видеоархив"
    INDEX 01 17:40:46
  TRACK 71 AUDIO
    TITLE "00:17:55.12850"
    PERFORMER "Владимир Михайлович Зазнобин. Видеоархив"
    INDEX 01 17:55:10
  TRACK 72 AUDIO
    TITLE "00:18:09.50807"
    PERFORMER "Владимир Михайлович Зазнобин. Видеоархив"
    INDEX 01 18:09:38
  TRACK 73 AUDIO
    TITLE "00:18:27.09853"
    PERFORMER "Владимир Михайлович Зазнобин. Видеоархив"
    INDEX 01 18:27:07
  TRACK 74 AUDIO
    TITLE "00:18:40.81866"
    PERFORMER "Владимир Михайлович Зазнобин. Видеоархив"
    INDEX 01 18:40:61
  TRACK 75 AUDIO
    TITLE "00:18:55.54515"
    PERFORMER "Владимир Михайлович Зазнобин. Видеоархив"
    INDEX 01 18:55:41
  TRACK 76 AUDIO
    TITLE "00:19:08.55567"
    PERFORMER "Владимир Михайлович Зазнобин. Видеоархив"
    INDEX 01 19:08:42
  TRACK 77 AUDIO
    TITLE "00:19:23.22365"
    PERFORMER "Владимир Михайлович Зазнобин. Видеоархив"
    INDEX 01 19:23:17
  TRACK 78 AUDIO
    TITLE "00:19:41.05231"
    PERFORMER "Владимир Михайлович Зазнобин. Видеоархив"
    INDEX 01 19:41:04
  TRACK 79 AUDIO
    TITLE "00:19:56.08717"
    PERFORMER "Владимир Михайлович Зазнобин. Видеоархив"
    INDEX 01 19:56:07
  TRACK 80 AUDIO
    TITLE "00:20:10.11426"
    PERFORMER "Владимир Михайлович Зазнобин. Видеоархив"
    INDEX 01 20:10:09
  TRACK 81 AUDIO
    TITLE "00:20:28.53413"
    PERFORMER "Владимир Михайлович Зазнобин. Видеоархив"
    INDEX 01 20:28:40
  TRACK 82 AUDIO
    TITLE "00:20:46.50025"
    PERFORMER "Владимир Михайлович Зазнобин. Видеоархив"
    INDEX 01 20:46:38
  TRACK 83 AUDIO
    TITLE "00:21:04.04426"
    PERFORMER "Владимир Михайлович Зазнобин. Видеоархив"
    INDEX 01 21:04:03
  TRACK 84 AUDIO
    TITLE "00:21:19.52075"
    PERFORMER "Владимир Михайлович Зазнобин. Видеоархив"
    INDEX 01 21:19:39
  TRACK 85 AUDIO
    TITLE "00:21:33.31844"
    PERFORMER "Владимир Михайлович Зазнобин. Видеоархив"
    INDEX 01 21:33:24
  TRACK 86 AUDIO
    TITLE "00:21:46.48825"
    PERFORMER "Владимир Михайлович Зазнобин. Видеоархив"
    INDEX 01 21:46:37
  TRACK 87 AUDIO
    TITLE "00:22:05.20671"
    PERFORMER "Владимир Михайлович Зазнобин. Видеоархив"
    INDEX 01 22:05:16
  TRACK 88 AUDIO
    TITLE "00:22:23.10458"
    PERFORMER "Владимир Михайлович Зазнобин. Видеоархив"
    INDEX 01 22:23:08
  TRACK 89 AUDIO
    TITLE "00:22:38.90383"
    PERFORMER "Владимир Михайлович Зазнобин. Видеоархив"
    INDEX 01 22:38:68
  TRACK 90 AUDIO
    TITLE "00:22:56.50077"
    PERFORMER "Владимир Михайлович Зазнобин. Видеоархив"
    INDEX 01 22:56:38
  TRACK 91 AUDIO
    TITLE "00:23:12.10544"
    PERFORMER "Владимир Михайлович Зазнобин. Видеоархив"
    INDEX 01 23:12:08
  TRACK 92 AUDIO
    TITLE "00:23:27.72776"
    PERFORMER "Владимир Михайлович Зазнобин. Видеоархив"
    INDEX 01 23:27:55
  TRACK 93 AUDIO
    TITLE "00:23:52.57256"
    PERFORMER "Владимир Михайлович Зазнобин. Видеоархив"
    INDEX 01 23:52:43
  TRACK 94 AUDIO
    TITLE "00:24:08.60773"
    PERFORMER "Владимир Михайлович Зазнобин. Видеоархив"
    INDEX 01 24:08:46
  TRACK 95 AUDIO
    TITLE "00:24:28.19463"
    PERFORMER "Владимир Михайлович Зазнобин. Видеоархив"
    INDEX 01 24:28:15
  TRACK 96 AUDIO
    TITLE "00:24:44.56694"
    PERFORMER "Владимир Михайлович Зазнобин. Видеоархив"
    INDEX 01 24:44:43
  TRACK 97 AUDIO
    TITLE "00:24:57.56864"
    PERFORMER "Владимир Михайлович Зазнобин. Видеоархив"
    INDEX 01 24:57:43
  TRACK 98 AUDIO
    TITLE "00:25:12.10798"
    PERFORMER "Владимир Михайлович Зазнобин. Видеоархив"
    INDEX 01 25:12:08
  TRACK 99 AUDIO
    TITLE "00:25:25.75705"
    PERFORMER "Владимир Михайлович Зазнобин. Видеоархив"
    INDEX 01 25:25:57
  TRACK 100 AUDIO
    TITLE "00:25:41.71839"
    PERFORMER "Владимир Михайлович Зазнобин. Видеоархив"
    INDEX 01 25:41:54
  TRACK 101 AUDIO
    TITLE "00:25:55.40091"
    PERFORMER "Владимир Михайлович Зазнобин. Видеоархив"
    INDEX 01 25:55:30
  TRACK 102 AUDIO
    TITLE "00:26:10.36424"
    PERFORMER "Владимир Михайлович Зазнобин. Видеоархив"
    INDEX 01 26:10:27
  TRACK 103 AUDIO
    TITLE "00:26:24.01841"
    PERFORMER "Владимир Михайлович Зазнобин. Видеоархив"
    INDEX 01 26:24:01
  TRACK 104 AUDIO
    TITLE "00:26:42.68766"
    PERFORMER "Владимир Михайлович Зазнобин. Видеоархив"
    INDEX 01 26:42:52
  TRACK 105 AUDIO
    TITLE "00:26:58.39077"
    PERFORMER "Владимир Михайлович Зазнобин. Видеоархив"
    INDEX 01 26:58:29
  TRACK 106 AUDIO
    TITLE "00:27:16.25984"
    PERFORMER "Владимир Михайлович Зазнобин. Видеоархив"
    INDEX 01 27:16:19
  TRACK 107 AUDIO
    TITLE "00:27:29.69624"
    PERFORMER "Владимир Михайлович Зазнобин. Видеоархив"
    INDEX 01 27:29:52
  TRACK 108 AUDIO
    TITLE "00:27:44.52304"
    PERFORMER "Владимир Михайлович Зазнобин. Видеоархив"
    INDEX 01 27:44:39
  TRACK 109 AUDIO
    TITLE "00:28:01.40619"
    PERFORMER "Владимир Михайлович Зазнобин. Видеоархив"
    INDEX 01 28:01:30
  TRACK 110 AUDIO
    TITLE "00:28:16.85156"
    PERFORMER "Владимир Михайлович Зазнобин. Видеоархив"
    INDEX 01 28:16:64
  TRACK 111 AUDIO
    TITLE "00:28:31.89014"
    PERFORMER "Владимир Михайлович Зазнобин. Видеоархив"
    INDEX 01 28:31:67
  TRACK 112 AUDIO
    TITLE "00:28:48.61027"
    PERFORMER "Владимир Михайлович Зазнобин. Видеоархив"
    INDEX 01 28:48:46
  TRACK 113 AUDIO
    TITLE "00:29:05.95413"
    PERFORMER "Владимир Михайлович Зазнобин. Видеоархив"
    INDEX 01 29:05:72
  TRACK 114 AUDIO
    TITLE "00:29:20.56079"
    PERFORMER "Владимир Михайлович Зазнобин. Видеоархив"
    INDEX 01 29:20:42
  TRACK 115 AUDIO
    TITLE "00:29:34.40540"
    PERFORMER "Владимир Михайлович Зазнобин. Видеоархив"
    INDEX 01 29:34:30
  TRACK 116 AUDIO
    TITLE "00:29:49.26655"
    PERFORMER "Владимир Михайлович Зазнобин. Видеоархив"
    INDEX 01 29:49:20
  TRACK 117 AUDIO
    TITLE "00:30:05.81998"
    PERFORMER "Владимир Михайлович Зазнобин. Видеоархив"
    INDEX 01 30:05:61
  TRACK 118 AUDIO
    TITLE "00:30:19.52943"
    PERFORMER "Владимир Михайлович Зазнобин. Видеоархив"
    INDEX 01 30:19:40
  TRACK 119 AUDIO
    TITLE "00:30:33.81660"
    PERFORMER "Владимир Михайлович Зазнобин. Видеоархив"
    INDEX 01 30:33:61
  TRACK 120 AUDIO
    TITLE "00:30:47.34633"
    PERFORMER "Владимир Михайлович Зазнобин. Видеоархив"
    INDEX 01 30:47:26
  TRACK 121 AUDIO
    TITLE "00:31:02.97746"
    PERFORMER "Владимир Михайлович Зазнобин. Видеоархив"
    INDEX 01 31:02:73
  TRACK 122 AUDIO
    TITLE "00:31:19.46635"
    PERFORMER "Владимир Михайлович Зазнобин. Видеоархив"
    INDEX 01 31:19:35
  TRACK 123 AUDIO
    TITLE "00:31:39.03002"
    PERFORMER "Владимир Михайлович Зазнобин. Видеоархив"
    INDEX 01 31:39:02
  TRACK 124 AUDIO
    TITLE "00:31:58.09864"
    PERFORMER "Владимир Михайлович Зазнобин. Видеоархив"
    INDEX 01 31:58:07
  TRACK 125 AUDIO
    TITLE "00:32:13.98288"
    PERFORMER "Владимир Михайлович Зазнобин. Видеоархив"
    INDEX 01 32:13:74
  TRACK 126 AUDIO
    TITLE "00:32:27.46662"
    PERFORMER "Владимир Михайлович Зазнобин. Видеоархив"
    INDEX 01 32:27:35
  TRACK 127 AUDIO
    TITLE "00:32:43.78787"
    PERFORMER "Владимир Михайлович Зазнобин. Видеоархив"
    INDEX 01 32:43:59
  TRACK 128 AUDIO
    TITLE "00:32:58.22782"
    PERFORMER "Владимир Михайлович Зазнобин. Видеоархив"
    INDEX 01 32:58:17
  TRACK 129 AUDIO
    TITLE "00:33:13.39828"
    PERFORMER "Владимир Михайлович Зазнобин. Видеоархив"
    INDEX 01 33:13:30
  TRACK 130 AUDIO
    TITLE "00:33:26.38000"
    PERFORMER "Владимир Михайлович Зазнобин. Видеоархив"
    INDEX 01 33:26:29
  TRACK 131 AUDIO
    TITLE "00:33:40.02351"
    PERFORMER "Владимир Михайлович Зазнобин. Видеоархив"
    INDEX 01 33:40:02
  TRACK 132 AUDIO
    TITLE "00:33:55.26408"
    PERFORMER "Владимир Михайлович Зазнобин. Видеоархив"
    INDEX 01 33:55:20
  TRACK 133 AUDIO
    TITLE "00:34:12.21506"
    PERFORMER "Владимир Михайлович Зазнобин. Видеоархив"
    INDEX 01 34:12:16
  TRACK 134 AUDIO
    TITLE "00:34:29.97082"
    PERFORMER "Владимир Михайлович Зазнобин. Видеоархив"
    INDEX 01 34:29:73
  TRACK 135 AUDIO
    TITLE "00:34:44.66061"
    PERFORMER "Владимир Михайлович Зазнобин. Видеоархив"
    INDEX 01 34:44:50
  TRACK 136 AUDIO
    TITLE "00:34:59.14376"
    PERFORMER "Владимир Михайлович Зазнобин. Видеоархив"
    INDEX 01 34:59:11
  TRACK 137 AUDIO
    TITLE "00:35:14.52227"
    PERFORMER "Владимир Михайлович Зазнобин. Видеоархив"
    INDEX 01 35:14:39
  TRACK 138 AUDIO
    TITLE "00:35:28.21871"
    PERFORMER "Владимир Михайлович Зазнобин. Видеоархив"
    INDEX 01 35:28:16
  TRACK 139 AUDIO
    TITLE "00:35:41.84179"
    PERFORMER "Владимир Михайлович Зазнобин. Видеоархив"
    INDEX 01 35:41:63
  TRACK 140 AUDIO
    TITLE "00:35:55.00696"
    PERFORMER "Владимир Михайлович Зазнобин. Видеоархив"
    INDEX 01 35:55:01
  TRACK 141 AUDIO
    TITLE "00:36:11.22463"
    PERFORMER "Владимир Михайлович Зазнобин. Видеоархив"
    INDEX 01 36:11:17
  TRACK 142 AUDIO
    TITLE "00:36:27.12512"
    PERFORMER "Владимир Михайлович Зазнобин. Видеоархив"
    INDEX 01 36:27:09
  TRACK 143 AUDIO
    TITLE "00:36:45.28213"
    PERFORMER "Владимир Михайлович Зазнобин. Видеоархив"
    INDEX 01 36:45:21
  TRACK 144 AUDIO
    TITLE "00:36:58.91587"
    PERFORMER "Владимир Михайлович Зазнобин. Видеоархив"
    INDEX 01 36:58:69
  TRACK 145 AUDIO
    TITLE "00:37:13.99902"
    PERFORMER "Владимир Михайлович Зазнобин. Видеоархив"
    INDEX 01 37:14:00
  TRACK 146 AUDIO
    TITLE "00:37:27.54687"
    PERFORMER "Владимир Михайлович Зазнобин. Видеоархив"
    INDEX 01 37:27:41
  TRACK 147 AUDIO
    TITLE "00:37:45.90494"
    PERFORMER "Владимир Михайлович Зазнобин. Видеоархив"
    INDEX 01 37:45:68
  TRACK 148 AUDIO
    TITLE "00:37:59.45048"
    PERFORMER "Владимир Михайлович Зазнобин. Видеоархив"
    INDEX 01 37:59:34
  TRACK 149 AUDIO
    TITLE "00:38:17.07621"
    PERFORMER "Владимир Михайлович Зазнобин. Видеоархив"
    INDEX 01 38:17:06
  TRACK 150 AUDIO
    TITLE "00:38:34.20921"
    PERFORMER "Владимир Михайлович Зазнобин. Видеоархив"
    INDEX 01 38:34:16
  TRACK 151 AUDIO
    TITLE "00:38:51.73184"
    PERFORMER "Владимир Михайлович Зазнобин. Видеоархив"
    INDEX 01 38:51:55
  TRACK 152 AUDIO
    TITLE "00:39:05.65492"
    PERFORMER "Владимир Михайлович Зазнобин. Видеоархив"
    INDEX 01 39:05:49
  TRACK 153 AUDIO
    TITLE "00:39:18.68077"
    PERFORMER "Владимир Михайлович Зазнобин. Видеоархив"
    INDEX 01 39:18:51
  TRACK 154 AUDIO
    TITLE "00:39:35.99535"
    PERFORMER "Владимир Михайлович Зазнобин. Видеоархив"
    INDEX 01 39:36:00
  TRACK 155 AUDIO
    TITLE "00:39:52.19213"
    PERFORMER "Владимир Михайлович Зазнобин. Видеоархив"
    INDEX 01 39:52:14
  TRACK 156 AUDIO
    TITLE "00:40:06.79138"
    PERFORMER "Владимир Михайлович Зазнобин. Видеоархив"
    INDEX 01 40:06:59
  TRACK 157 AUDIO
    TITLE "00:40:21.78070"
    PERFORMER "Владимир Михайлович Зазнобин. Видеоархив"
    INDEX 01 40:21:59
  TRACK 158 AUDIO
    TITLE "00:40:37.54884"
    PERFORMER "Владимир Михайлович Зазнобин. Видеоархив"
    INDEX 01 40:37:41
  TRACK 159 AUDIO
    TITLE "00:40:51.66512"
    PERFORMER "Владимир Михайлович Зазнобин. Видеоархив"
    INDEX 01 40:51:50
  TRACK 160 AUDIO
    TITLE "00:41:05.36156"
    PERFORMER "Владимир Михайлович Зазнобин. Видеоархив"
    INDEX 01 41:05:27
  TRACK 161 AUDIO
    TITLE "00:41:20.90399"
    PERFORMER "Владимир Михайлович Зазнобин. Видеоархив"
    INDEX 01 41:20:68
  TRACK 162 AUDIO
    TITLE "00:41:35.54224"
    PERFORMER "Владимир Михайлович Зазнобин. Видеоархив"
    INDEX 01 41:35:41
  TRACK 163 AUDIO
    TITLE "00:41:48.65449"
    PERFORMER "Владимир Михайлович Зазнобин. Видеоархив"
    INDEX 01 41:48:49
  TRACK 164 AUDIO
    TITLE "00:42:03.45295"
    PERFORMER "Владимир Михайлович Зазнобин. Видеоархив"
    INDEX 01 42:03:34
  TRACK 165 AUDIO
    TITLE "00:42:17.26551"
    PERFORMER "Владимир Михайлович Зазнобин. Видеоархив"
    INDEX 01 42:17:20
  TRACK 166 AUDIO
    TITLE "00:42:32.11134"
    PERFORMER "Владимир Михайлович Зазнобин. Видеоархив"
    INDEX 01 42:32:08
  TRACK 167 AUDIO
    TITLE "00:42:46.13102"
    PERFORMER "Владимир Михайлович Зазнобин. Видеоархив"
    INDEX 01 42:46:10
  TRACK 168 AUDIO
    TITLE "00:43:00.33134"
    PERFORMER "Владимир Михайлович Зазнобин. Видеоархив"
    INDEX 01 43:00:25
  TRACK 169 AUDIO
    TITLE "00:43:14.23492"
    PERFORMER "Владимир Михайлович Зазнобин. Видеоархив"
    INDEX 01 43:14:18
  TRACK 170 AUDIO
    TITLE "00:43:29.13508"
    PERFORMER "Владимир Михайлович Зазнобин. Видеоархив"
    INDEX 01 43:29:10
  TRACK 171 AUDIO
    TITLE "00:43:42.58912"
    PERFORMER "Владимир Михайлович Зазнобин. Видеоархив"
    INDEX 01 43:42:44
  TRACK 172 AUDIO
    TITLE "00:43:57.90633"
    PERFORMER "Владимир Михайлович Зазнобин. Видеоархив"
    INDEX 01 43:57:68
  TRACK 173 AUDIO
    TITLE "00:44:11.10494"
    PERFORMER "Владимир Михайлович Зазнобин. Видеоархив"
    INDEX 01 44:11:08
  TRACK 174 AUDIO
    TITLE "00:44:25.25463"
    PERFORMER "Владимир Михайлович Зазнобин. Видеоархив"
    INDEX 01 44:25:19
  TRACK 175 AUDIO
    TITLE "00:44:41.61998"
    PERFORMER "Владимир Михайлович Зазнобин. Видеоархив"
    INDEX 01 44:41:46
  TRACK 176 AUDIO
    TITLE "00:44:56.67481"
    PERFORMER "Владимир Михайлович Зазнобин. Видеоархив"
    INDEX 01 44:56:51
  TRACK 177 AUDIO
    TITLE "00:45:21.19315"
    PERFORMER "Владимир Михайлович Зазнобин. Видеоархив"
    INDEX 01 45:21:14
  TRACK 178 AUDIO
    TITLE "00:45:38.24209"
    PERFORMER "Владимир Михайлович Зазнобин. Видеоархив"
    INDEX 01 45:38:18
  TRACK 179 AUDIO
    TITLE "00:45:51.72075"
    PERFORMER "Владимир Михайлович Зазнобин. Видеоархив"
    INDEX 01 45:51:54
  TRACK 180 AUDIO
    TITLE "00:46:04.69365"
    PERFORMER "Владимир Михайлович Зазнобин. Видеоархив"
    INDEX 01 46:04:52
  TRACK 181 AUDIO
    TITLE "00:46:21.86846"
    PERFORMER "Владимир Михайлович Зазнобин. Видеоархив"
    INDEX 01 46:21:65
  TRACK 182 AUDIO
    TITLE "00:46:36.68828"
    PERFORMER "Владимир Михайлович Зазнобин. Видеоархив"
    INDEX 01 46:36:52
  TRACK 183 AUDIO
    TITLE "00:46:51.02839"
    PERFORMER "Владимир Михайлович Зазнобин. Видеоархив"
    INDEX 01 46:51:02
  TRACK 184 AUDIO
    TITLE "00:47:04.78383"
    PERFORMER "Владимир Михайлович Зазнобин. Видеоархив"
    INDEX 01 47:04:59
  TRACK 185 AUDIO
    TITLE "00:47:20.16837"
    PERFORMER "Владимир Михайлович Зазнобин. Видеоархив"
    INDEX 01 47:20:13
  TRACK 186 AUDIO
    TITLE "00:47:34.75229"
    PERFORMER "Владимир Михайлович Зазнобин. Видеоархив"
    INDEX 01 47:34:56
  TRACK 187 AUDIO
    TITLE "00:47:52.62460"
    PERFORMER "Владимир Михайлович Зазнобин. Видеоархив"
    INDEX 01 47:52:47
  TRACK 188 AUDIO
    TITLE "00:48:06.91921"
    PERFORMER "Владимир Михайлович Зазнобин. Видеоархив"
    INDEX 01 48:06:69
  TRACK 189 AUDIO
    TITLE "00:48:21.12184"
    PERFORMER "Владимир Михайлович Зазнобин. Видеоархив"
    INDEX 01 48:21:09
  TRACK 190 AUDIO
    TITLE "00:48:37.23270"
    PERFORMER "Владимир Михайлович Зазнобин. Видеоархив"
    INDEX 01 48:37:17
  TRACK 191 AUDIO
    TITLE "00:48:51.42653"
    PERFORMER "Владимир Михайлович Зазнобин. Видеоархив"
    INDEX 01 48:51:32
  TRACK 192 AUDIO
    TITLE "00:49:05.61850"
    PERFORMER "Владимир Михайлович Зазнобин. Видеоархив"
    INDEX 01 49:05:46
  TRACK 193 AUDIO
    TITLE "00:49:22.88338"
    PERFORMER "Владимир Михайлович Зазнобин. Видеоархив"
    INDEX 01 49:22:66
  TRACK 194 AUDIO
    TITLE "00:49:37.29177"
    PERFORMER "Владимир Михайлович Зазнобин. Видеоархив"
    INDEX 01 49:37:22
  TRACK 195 AUDIO
    TITLE "00:49:50.56980"
    PERFORMER "Владимир Михайлович Зазнобин. Видеоархив"
    INDEX 01 49:50:43
  TRACK 196 AUDIO
    TITLE "00:50:08.50619"
    PERFORMER "Владимир Михайлович Зазнобин. Видеоархив"
    INDEX 01 50:08:38
  TRACK 197 AUDIO
    TITLE "00:50:23.46025"
    PERFORMER "Владимир Михайлович Зазнобин. Видеоархив"
    INDEX 01 50:23:35
  TRACK 198 AUDIO
    TITLE "00:50:37.70701"
    PERFORMER "Владимир Михайлович Зазнобин. Видеоархив"
    INDEX 01 50:37:53
  TRACK 199 AUDIO
    TITLE "00:50:51.76522"
    PERFORMER "Владимир Михайлович Зазнобин. Видеоархив"
    INDEX 01 50:51:57
  TRACK 200 AUDIO
    TITLE "00:51:06.02823"
    PERFORMER "Владимир Михайлович Зазнобин. Видеоархив"
    INDEX 01 51:06:02
  TRACK 201 AUDIO
    TITLE "00:51:25.65646"
    PERFORMER "Владимир Михайлович Зазнобин. Видеоархив"
    INDEX 01 51:25:49
  TRACK 202 AUDIO
    TITLE "00:51:40.00354"
    PERFORMER "Владимир Михайлович Зазнобин. Видеоархив"
    INDEX 01 51:40:00
  TRACK 203 AUDIO
    TITLE "00:51:54.50664"
    PERFORMER "Владимир Михайлович Зазнобин. Видеоархив"
    INDEX 01 51:54:38
  TRACK 204 AUDIO
    TITLE "00:52:10.51812"
    PERFORMER "Владимир Михайлович Зазнобин. Видеоархив"
    INDEX 01 52:10:39
  TRACK 205 AUDIO
    TITLE "00:52:29.67497"
    PERFORMER "Владимир Михайлович Зазнобин. Видеоархив"
    INDEX 01 52:29:51
  TRACK 206 AUDIO
    TITLE "00:52:49.12440"
    PERFORMER "Владимир Михайлович Зазнобин. Видеоархив"
    INDEX 01 52:49:09
  TRACK 207 AUDIO
    TITLE "00:53:05.61188"
    PERFORMER "Владимир Михайлович Зазнобин. Видеоархив"
    INDEX 01 53:05:46
  TRACK 208 AUDIO
    TITLE "00:53:20.88683"
    PERFORMER "Владимир Михайлович Зазнобин. Видеоархив"
    INDEX 01 53:20:67
  TRACK 209 AUDIO
    TITLE "00:53:37.19739"
    PERFORMER "Владимир Михайлович Зазнобин. Видеоархив"
    INDEX 01 53:37:15
  TRACK 210 AUDIO
    TITLE "00:53:55.22063"
    PERFORMER "Владимир Михайлович Зазнобин. Видеоархив"
    INDEX 01 53:55:17
  TRACK 211 AUDIO
    TITLE "00:54:14.32456"
    PERFORMER "Владимир Михайлович Зазнобин. Видеоархив"
    INDEX 01 54:14:24
  TRACK 212 AUDIO
    TITLE "00:54:34.20308"
    PERFORMER "Владимир Михайлович Зазнобин. Видеоархив"
    INDEX 01 54:34:15
  TRACK 213 AUDIO
    TITLE "00:54:49.23098"
    PERFORMER "Владимир Михайлович Зазнобин. Видеоархив"
    INDEX 01 54:49:17
  TRACK 214 AUDIO
    TITLE "00:55:03.45776"
    PERFORMER "Владимир Михайлович Зазнобин. Видеоархив"
    INDEX 01 55:03:34
  TRACK 215 AUDIO
    TITLE "00:55:17.43889"
    PERFORMER "Владимир Михайлович Зазнобин. Видеоархив"
    INDEX 01 55:17:33
  TRACK 216 AUDIO
    TITLE "00:55:31.89880"
    PERFORMER "Владимир Михайлович Зазнобин. Видеоархив"
    INDEX 01 55:31:67
  TRACK 217 AUDIO
    TITLE "00:55:54.77272"
    PERFORMER "Владимир Михайлович Зазнобин. Видеоархив"
    INDEX 01 55:54:58
  TRACK 218 AUDIO
    TITLE "00:56:15.67571"
    PERFORMER "Владимир Михайлович Зазнобин. Видеоархив"
    INDEX 01 56:15:51
  TRACK 219 AUDIO
    TITLE "00:56:29.87556"
    PERFORMER "Владимир Михайлович Зазнобин. Видеоархив"
    INDEX 01 56:29:66
  TRACK 220 AUDIO
    TITLE "00:56:43.61567"
    PERFORMER "Владимир Михайлович Зазнобин. Видеоархив"
    INDEX 01 56:43:46
  TRACK 221 AUDIO
    TITLE "00:56:56.78317"
    PERFORMER "Владимир Михайлович Зазнобин. Видеоархив"
    INDEX 01 56:56:59
  TRACK 222 AUDIO
    TITLE "00:57:12.13846"
    PERFORMER "Владимир Михайлович Зазнобин. Видеоархив"
    INDEX 01 57:12:10
  TRACK 223 AUDIO
    TITLE "00:57:28.95057"
    PERFORMER "Владимир Михайлович Зазнобин. Видеоархив"
    INDEX 01 57:28:71
  TRACK 224 AUDIO
    TITLE "00:57:42.41619"
    PERFORMER "Владимир Михайлович Зазнобин. Видеоархив"
    INDEX 01 57:42:31
  TRACK 225 AUDIO
    TITLE "00:57:58.14671"
    PERFORMER "Владимир Михайлович Зазнобин. Видеоархив"
    INDEX 01 57:58:11
  TRACK 226 AUDIO
    TITLE "00:58:13.74628"
    PERFORMER "Владимир Михайлович Зазнобин. Видеоархив"
    INDEX 01 58:13:56
  TRACK 227 AUDIO
    TITLE "00:58:27.62662"
    PERFORMER "Владимир Михайлович Зазнобин. Видеоархив"
    INDEX 01 58:27:47
  TRACK 228 AUDIO
    TITLE "00:58:40.59304"
    PERFORMER "Владимир Михайлович Зазнобин. Видеоархив"
    INDEX 01 58:40:44
  TRACK 229 AUDIO
    TITLE "00:58:54.19662"
    PERFORMER "Владимир Михайлович Зазнобин. Видеоархив"
    INDEX 01 58:54:15
  TRACK 230 AUDIO
    TITLE "00:59:08.75127"
    PERFORMER "Владимир Михайлович Зазнобин. Видеоархив"
    INDEX 01 59:08:56
  TRACK 231 AUDIO
    TITLE "00:59:24.91553"
    PERFORMER "Владимир Михайлович Зазнобин. Видеоархив"
    INDEX 01 59:24:69
  TRACK 232 AUDIO
    TITLE "00:59:40.95488"
    PERFORMER "Владимир Михайлович Зазнобин. Видеоархив"
    INDEX 01 59:40:72
  TRACK 233 AUDIO
    TITLE "00:59:54.32392"
    PERFORMER "Владимир Михайлович Зазнобин. Видеоархив"
    INDEX 01 59:54:24
  TRACK 234 AUDIO
    TITLE "01:00:08.03803"
    PERFORMER "Владимир Михайлович Зазнобин. Видеоархив"
    INDEX 01 60:08:03
  TRACK 235 AUDIO
    TITLE "01:00:21.75816"
    PERFORMER "Владимир Михайлович Зазнобин. Видеоархив"
    INDEX 01 60:21:57
  TRACK 236 AUDIO
    TITLE "01:00:36.33930"
    PERFORMER "Владимир Михайлович Зазнобин. Видеоархив"
    INDEX 01 60:36:25
  TRACK 237 AUDIO
    TITLE "01:00:50.76995"
    PERFORMER "Владимир Михайлович Зазнобин. Видеоархив"
    INDEX 01 60:50:58
  TRACK 238 AUDIO
    TITLE "01:01:06.94166"
    PERFORMER "Владимир Михайлович Зазнобин. Видеоархив"
    INDEX 01 61:06:71
  TRACK 239 AUDIO
    TITLE "01:01:22.82170"
    PERFORMER "Владимир Михайлович Зазнобин. Видеоархив"
    INDEX 01 61:22:62
  TRACK 240 AUDIO
    TITLE "01:01:36.53070"
    PERFORMER "Владимир Михайлович Зазнобин. Видеоархив"
    INDEX 01 61:36:40
  TRACK 241 AUDIO
    TITLE "01:01:50.91447"
    PERFORMER "Владимир Михайлович Зазнобин. Видеоархив"
    INDEX 01 61:50:69
  TRACK 242 AUDIO
    TITLE "01:02:07.81619"
    PERFORMER "Владимир Михайлович Зазнобин. Видеоархив"
    INDEX 01 62:07:61
  TRACK 243 AUDIO
    TITLE "01:02:22.56172"
    PERFORMER "Владимир Михайлович Зазнобин. Видеоархив"
    INDEX 01 62:22:42
  TRACK 244 AUDIO
    TITLE "01:02:36.70909"
    PERFORMER "Владимир Михайлович Зазнобин. Видеоархив"
    INDEX 01 62:36:53
  TRACK 245 AUDIO
    TITLE "01:02:50.54023"
    PERFORMER "Владимир Михайлович Зазнобин. Видеоархив"
    INDEX 01 62:50:41
  TRACK 246 AUDIO
    TITLE "01:03:13.81723"
    PERFORMER "Владимир Михайлович Зазнобин. Видеоархив"
    INDEX 01 63:13:61
  TRACK 247 AUDIO
    TITLE "01:03:28.95841"
    PERFORMER "Владимир Михайлович Зазнобин. Видеоархив"
    INDEX 01 63:28:72
  TRACK 248 AUDIO
    TITLE "01:03:43.71184"
    PERFORMER "Владимир Михайлович Зазнобин. Видеоархив"
    INDEX 01 63:43:53
  TRACK 249 AUDIO
    TITLE "01:03:57.79746"
    PERFORMER "Владимир Михайлович Зазнобин. Видеоархив"
    INDEX 01 63:57:60
  TRACK 250 AUDIO
    TITLE "01:04:12.50676"
    PERFORMER "Владимир Михайлович Зазнобин. Видеоархив"
    INDEX 01 64:12:38
  TRACK 251 AUDIO
    TITLE "01:04:30.96005"
    PERFORMER "Владимир Михайлович Зазнобин. Видеоархив"
    INDEX 01 64:30:72
  TRACK 252 AUDIO
    TITLE "01:04:49.43193"
    PERFORMER "Владимир Михайлович Зазнобин. Видеоархив"
    INDEX 01 64:49:32
  TRACK 253 AUDIO
    TITLE "01:05:05.99510"
    PERFORMER "Владимир Михайлович Зазнобин. Видеоархив"
    INDEX 01 65:06:00
  TRACK 254 AUDIO
    TITLE "01:05:19.95533"
    PERFORMER "Владимир Михайлович Зазнобин. Видеоархив"
    INDEX 01 65:19:72
  TRACK 255 AUDIO
    TITLE "01:05:34.16494"
    PERFORMER "Владимир Михайлович Зазнобин. Видеоархив"
    INDEX 01 65:34:12
  TRACK 256 AUDIO
    TITLE "01:05:49.77286"
    PERFORMER "Владимир Михайлович Зазнобин. Видеоархив"
    INDEX 01 65:49:58
  TRACK 257 AUDIO
    TITLE "01:06:09.69041"
    PERFORMER "Владимир Михайлович Зазнобин. Видеоархив"
    INDEX 01 66:09:52
  TRACK 258 AUDIO
    TITLE "01:06:24.50605"
    PERFORMER "Владимир Михайлович Зазнобин. Видеоархив"
    INDEX 01 66:24:38
  TRACK 259 AUDIO
    TITLE "01:06:38.77465"
    PERFORMER "Владимир Михайлович Зазнобин. Видеоархив"
    INDEX 01 66:38:58
  TRACK 260 AUDIO
    TITLE "01:06:53.90190"
    PERFORMER "Владимир Михайлович Зазнобин. Видеоархив"
    INDEX 01 66:53:68
  TRACK 261 AUDIO
    TITLE "01:07:07.82778"
    PERFORMER "Владимир Михайлович Зазнобин. Видеоархив"
    INDEX 01 67:07:62
  TRACK 262 AUDIO
    TITLE "01:07:26.98880"
    PERFORMER "Владимир Михайлович Зазнобин. Видеоархив"
    INDEX 01 67:26:74
  TRACK 263 AUDIO
    TITLE "01:07:43.37041"
    PERFORMER "Владимир Михайлович Зазнобин. Видеоархив"
    INDEX 01 67:43:28
  TRACK 264 AUDIO
    TITLE "01:07:57.61857"
    PERFORMER "Владимир Михайлович Зазнобин. Видеоархив"
    INDEX 01 67:57:46
  TRACK 265 AUDIO
    TITLE "01:08:11.52213"
    PERFORMER "Владимир Михайлович Зазнобин. Видеоархив"
    INDEX 01 68:11:39
  TRACK 266 AUDIO
    TITLE "01:08:28.24460"
    PERFORMER "Владимир Михайлович Зазнобин. Видеоархив"
    INDEX 01 68:28:18
  TRACK 267 AUDIO
    TITLE "01:08:44.25748"
    PERFORMER "Владимир Михайлович Зазнобин. Видеоархив"
    INDEX 01 68:44:19
  TRACK 268 AUDIO
    TITLE "01:08:59.83336"
    PERFORMER "Владимир Михайлович Зазнобин. Видеоархив"
    INDEX 01 68:59:63
  TRACK 269 AUDIO
    TITLE "01:09:13.67796"
    PERFORMER "Владимир Михайлович Зазнобин. Видеоархив"
    INDEX 01 69:13:51
  TRACK 270 AUDIO
    TITLE "01:09:31.48388"
    PERFORMER "Владимир Михайлович Зазнобин. Видеоархив"
    INDEX 01 69:31:36
  TRACK 271 AUDIO
    TITLE "01:09:49.58236"
    PERFORMER "Владимир Михайлович Зазнобин. Видеоархив"
    INDEX 01 69:49:44
  TRACK 272 AUDIO
    TITLE "01:10:08.48379"
    PERFORMER "Владимир Михайлович Зазнобин. Видеоархив"
    INDEX 01 70:08:36
  TRACK 273 AUDIO
    TITLE "01:10:23.18009"
    PERFORMER "Владимир Михайлович Зазнобин. Видеоархив"
    INDEX 01 70:23:14
  TRACK 274 AUDIO
    TITLE "01:10:37.67624"
    PERFORMER "Владимир Михайлович Зазнобин. Видеоархив"
    INDEX 01 70:37:51
  TRACK 275 AUDIO
    TITLE "01:10:52.10458"
    PERFORMER "Владимир Михайлович Зазнобин. Видеоархив"
    INDEX 01 70:52:08
  TRACK 276 AUDIO
    TITLE "01:11:11.08821"
    PERFORMER "Владимир Михайлович Зазнобин. Видеоархив"
    INDEX 01 71:11:07
  TRACK 277 AUDIO
    TITLE "01:11:26.70125"
    PERFORMER "Владимир Михайлович Зазнобин. Видеоархив"
    INDEX 01 71:26:53
  TRACK 278 AUDIO
    TITLE "01:11:39.93746"
    PERFORMER "Владимир Михайлович Зазнобин. Видеоархив"
    INDEX 01 71:39:70
  TRACK 279 AUDIO
    TITLE "01:11:58.46785"
    PERFORMER "Владимир Михайлович Зазнобин. Видеоархив"
    INDEX 01 71:58:35
  TRACK 280 AUDIO
    TITLE "01:12:12.88272"
    PERFORMER "Владимир Михайлович Зазнобин. Видеоархив"
    INDEX 01 72:12:66
  TRACK 281 AUDIO
    TITLE "01:12:34.36669"
    PERFORMER "Владимир Михайлович Зазнобин. Видеоархив"
    INDEX 01 72:34:28
  TRACK 282 AUDIO
    TITLE "01:12:52.55526"
    PERFORMER "Владимир Михайлович Зазнобин. Видеоархив"
    INDEX 01 72:52:42
  TRACK 283 AUDIO
    TITLE "01:13:07.42803"
    PERFORMER "Владимир Михайлович Зазнобин. Видеоархив"
    INDEX 01 73:07:32
  TRACK 284 AUDIO
    TITLE "01:13:21.71474"
    PERFORMER "Владимир Михайлович Зазнобин. Видеоархив"
    INDEX 01 73:21:54
  TRACK 285 AUDIO
    TITLE "01:13:36.53828"
    PERFORMER "Владимир Михайлович Зазнобин. Видеоархив"
    INDEX 01 73:36:40
  TRACK 286 AUDIO
    TITLE "01:13:52.69141"
    PERFORMER "Владимир Михайлович Зазнобин. Видеоархив"
    INDEX 01 73:52:52
  TRACK 287 AUDIO
    TITLE "01:14:07.89807"
    PERFORMER "Владимир Михайлович Зазнобин. Видеоархив"
    INDEX 01 74:07:67
  TRACK 288 AUDIO
    TITLE "01:14:22.57673"
    PERFORMER "Владимир Михайлович Зазнобин. Видеоархив"
    INDEX 01 74:22:43
  TRACK 289 AUDIO
    TITLE "01:14:36.03542"
    PERFORMER "Владимир Михайлович Зазнобин. Видеоархив"
    INDEX 01 74:36:03
  TRACK 290 AUDIO
    TITLE "01:14:51.64100"
    PERFORMER "Владимир Михайлович Зазнобин. Видеоархив"
    INDEX 01 74:51:48
  TRACK 291 AUDIO
    TITLE "01:15:10.88286"
    PERFORMER "Владимир Михайлович Зазнобин. Видеоархив"
    INDEX 01 75:10:66
  TRACK 292 AUDIO
    TITLE "01:15:26.43410"
    PERFORMER "Владимир Михайлович Зазнобин. Видеоархив"
    INDEX 01 75:26:33
  TRACK 293 AUDIO
    TITLE "01:15:39.44231"
    PERFORMER "Владимир Михайлович Зазнобин. Видеоархив"
    INDEX 01 75:39:33
  TRACK 294 AUDIO
    TITLE "01:15:55.27501"
    PERFORMER "Владимир Михайлович Зазнобин. Видеоархив"
    INDEX 01 75:55:21
  TRACK 295 AUDIO
    TITLE "01:16:12.06063"
    PERFORMER "Владимир Михайлович Зазнобин. Видеоархив"
    INDEX 01 76:12:05
  TRACK 296 AUDIO
    TITLE "01:16:25.44918"
    PERFORMER "Владимир Михайлович Зазнобин. Видеоархив"
    INDEX 01 76:25:34
  TRACK 297 AUDIO
    TITLE "01:16:41.44580"
    PERFORMER "Владимир Михайлович Зазнобин. Видеоархив"
    INDEX 01 76:41:33
  TRACK 298 AUDIO
    TITLE "01:16:57.34862"
    PERFORMER "Владимир Михайлович Зазнобин. Видеоархив"
    INDEX 01 76:57:26
  TRACK 299 AUDIO
    TITLE "01:17:13.11442"
    PERFORMER "Владимир Михайлович Зазнобин. Видеоархив"
    INDEX 01 77:13:09
  TRACK 300 AUDIO
    TITLE "01:17:26.70685"
    PERFORMER "Владимир Михайлович Зазнобин. Видеоархив"
    INDEX 01 77:26:53
  TRACK 301 AUDIO
    TITLE "01:17:43.39914"
    PERFORMER "Владимир Михайлович Зазнобин. Видеоархив"
    INDEX 01 77:43:30
  TRACK 302 AUDIO
    TITLE "01:18:03.31948"
    PERFORMER "Владимир Михайлович Зазнобин. Видеоархив"
    INDEX 01 78:03:24
  TRACK 303 AUDIO
    TITLE "01:18:18.61438"
    PERFORMER "Владимир Михайлович Зазнобин. Видеоархив"
    INDEX 01 78:18:46
  TRACK 304 AUDIO
    TITLE "01:18:32.13483"
    PERFORMER "Владимир Михайлович Зазнобин. Видеоархив"
    INDEX 01 78:32:10
  TRACK 305 AUDIO
    TITLE "01:18:46.58499"
    PERFORMER "Владимир Михайлович Зазнобин. Видеоархив"
    INDEX 01 78:46:44
  TRACK 306 AUDIO
    TITLE "01:19:00.49181"
    PERFORMER "Владимир Михайлович Зазнобин. Видеоархив"
    INDEX 01 79:00:37
  TRACK 307 AUDIO
    TITLE "01:19:15.63395"
    PERFORMER "Владимир Михайлович Зазнобин. Видеоархив"
    INDEX 01 79:15:48
  TRACK 308 AUDIO
    TITLE "01:19:29.66848"
    PERFORMER "Владимир Михайлович Зазнобин. Видеоархив"
    INDEX 01 79:29:50
  TRACK 309 AUDIO
    TITLE "01:19:44.66803"
    PERFORMER "Владимир Михайлович Зазнобин. Видеоархив"
    INDEX 01 79:44:50
  TRACK 310 AUDIO
    TITLE "01:19:58.77036"
    PERFORMER "Владимир Михайлович Зазнобин. Видеоархив"
    INDEX 01 79:58:58
  TRACK 311 AUDIO
    TITLE "01:20:12.31821"
    PERFORMER "Владимир Михайлович Зазнобин. Видеоархив"
    INDEX 01 80:12:24
  TRACK 312 AUDIO
    TITLE "01:20:27.39252"
    PERFORMER "Владимир Михайлович Зазнобин. Видеоархив"
    INDEX 01 80:27:29
  TRACK 313 AUDIO
    TITLE "01:20:42.62522"
    PERFORMER "Владимир Михайлович Зазнобин. Видеоархив"
    INDEX 01 80:42:47
  TRACK 314 AUDIO
    TITLE "01:21:01.95853"
    PERFORMER "Владимир Михайлович Зазнобин. Видеоархив"
    INDEX 01 81:01:72
  TRACK 315 AUDIO
    TITLE "01:21:18.61553"
    PERFORMER "Владимир Михайлович Зазнобин. Видеоархив"
    INDEX 01 81:18:46
  TRACK 316 AUDIO
    TITLE "01:21:34.16354"
    PERFORMER "Владимир Михайлович Зазнобин. Видеоархив"
    INDEX 01 81:34:12
  TRACK 317 AUDIO
    TITLE "01:21:51.04531"
    PERFORMER "Владимир Михайлович Зазнобин. Видеоархив"
    INDEX 01 81:51:03
  TRACK 318 AUDIO
    TITLE "01:22:04.97814"
    PERFORMER "Владимир Михайлович Зазнобин. Видеоархив"
    INDEX 01 82:04:73
  TRACK 319 AUDIO
    TITLE "01:22:18.97506"
    PERFORMER "Владимир Михайлович Зазнобин. Видеоархив"
    INDEX 01 82:18:73
  TRACK 320 AUDIO
    TITLE "01:22:37.86533"
    PERFORMER "Владимир Михайлович Зазнобин. Видеоархив"
    INDEX 01 82:37:65
  TRACK 321 AUDIO
    TITLE "01:22:53.90608"
    PERFORMER "Владимир Михайлович Зазнобин. Видеоархив"
    INDEX 01 82:53:68
  TRACK 322 AUDIO
    TITLE "01:23:11.89961"
    PERFORMER "Владимир Михайлович Зазнобин. Видеоархив"
    INDEX 01 83:11:67
  TRACK 323 AUDIO
    TITLE "01:23:25.49574"
    PERFORMER "Владимир Михайлович Зазнобин. Видеоархив"
    INDEX 01 83:25:37
  TRACK 324 AUDIO
    TITLE "01:23:39.86696"
    PERFORMER "Владимир Михайлович Зазнобин. Видеоархив"
    INDEX 01 83:39:65
  TRACK 325 AUDIO
    TITLE "01:23:53.89454"
    PERFORMER "Владимир Михайлович Зазнобин. Видеоархив"
    INDEX 01 83:53:67
  TRACK 326 AUDIO
    TITLE "01:24:09.54796"
    PERFORMER "Владимир Михайлович Зазнобин. Видеоархив"
    INDEX 01 84:09:41
  TRACK 327 AUDIO
    TITLE "01:24:25.28730"
    PERFORMER "Владимир Михайлович Зазнобин. Видеоархив"
    INDEX 01 84:25:22
  TRACK 328 AUDIO
    TITLE "01:24:39.48113"
    PERFORMER "Владимир Михайлович Зазнобин. Видеоархив"
    INDEX 01 84:39:36
  TRACK 329 AUDIO
    TITLE "01:24:54.08825"
    PERFORMER "Владимир Михайлович Зазнобин. Видеоархив"
    INDEX 01 84:54:07
  TRACK 330 AUDIO
    TITLE "01:25:09.80810"
    PERFORMER "Владимир Михайлович Зазнобин. Видеоархив"
    INDEX 01 85:09:61
  TRACK 331 AUDIO
    TITLE "01:25:24.05905"
    PERFORMER "Владимир Михайлович Зазнобин. Видеоархив"
    INDEX 01 85:24:04
  TRACK 332 AUDIO
    TITLE "01:25:39.63306"
    PERFORMER "Владимир Михайлович Зазнобин. Видеоархив"
    INDEX 01 85:39:47
  TRACK 333 AUDIO
    TITLE "01:25:56.61932"
    PERFORMER "Владимир Михайлович Зазнобин. Видеоархив"
    INDEX 01 85:56:46
  TRACK 334 AUDIO
    TITLE "01:26:11.33930"
    PERFORMER "Владимир Михайлович Зазнобин. Видеоархив"
    INDEX 01 86:11:25
  TRACK 335 AUDIO
    TITLE "01:26:27.51145"
    PERFORMER "Владимир Михайлович Зазнобин. Видеоархив"
    INDEX 01 86:27:38
  TRACK 336 AUDIO
    TITLE "01:26:42.49569"
    PERFORMER "Владимир Михайлович Зазнобин. Видеоархив"
    INDEX 01 86:42:37
  TRACK 337 AUDIO
    TITLE "01:26:57.37263"
    PERFORMER "Владимир Михайлович Зазнобин. Видеоархив"
    INDEX 01 86:57:28
  TRACK 338 AUDIO
    TITLE "01:27:18.63739"
    PERFORMER "Владимир Михайлович Зазнобин. Видеоархив"
    INDEX 01 87:18:48
  TRACK 339 AUDIO
    TITLE "01:27:34.14129"
    PERFORMER "Владимир Михайлович Зазнобин. Видеоархив"
    INDEX 01 87:34:11
  TRACK 340 AUDIO
    TITLE "01:27:48.18465"
    PERFORMER "Владимир Михайлович Зазнобин. Видеоархив"
    INDEX 01 87:48:14
  TRACK 341 AUDIO
    TITLE "01:28:05.03018"
    PERFORMER "Владимир Михайлович Зазнобин. Видеоархив"
    INDEX 01 88:05:02
  TRACK 342 AUDIO
    TITLE "01:28:19.29692"
    PERFORMER "Владимир Михайлович Зазнобин. Видеоархив"
    INDEX 01 88:19:22
  TRACK 343 AUDIO
    TITLE "01:28:34.59601"
    PERFORMER "Владимир Михайлович Зазнобин. Видеоархив"
    INDEX 01 88:34:45
  TRACK 344 AUDIO
    TITLE "01:28:48.95794"
    PERFORMER "Владимир Михайлович Зазнобин. Видеоархив"
    INDEX 01 88:48:72
  TRACK 345 AUDIO
    TITLE "01:29:02.07018"
    PERFORMER "Владимир Михайлович Зазнобин. Видеоархив"
    INDEX 01 89:02:05
  TRACK 346 AUDIO
    TITLE "01:29:15.71322"
    PERFORMER "Владимир Михайлович Зазнобин. Видеоархив"
    INDEX 01 89:15:53
  TRACK 347 AUDIO
    TITLE "01:29:32.91914"
    PERFORMER "Владимир Михайлович Зазнобин. Видеоархив"
    INDEX 01 89:32:69
  TRACK 348 AUDIO
    TITLE "01:29:47.65259"
    PERFORMER "Владимир Михайлович Зазнобин. Видеоархив"
    INDEX 01 89:47:49
